<svg xmlns="http://www.w3.org/2000/svg" width="1200" height="630" viewBox="0 0 1200 630">
  <defs>
    <linearGradient id="bg" x1="0" y1="0" x2="1" y2="1">
      <stop offset="0%" stop-color="#0f2e4a"/>
      <stop offset="100%" stop-color="#2376b8"/>
    </linearGradient>
  </defs>

  <rect width="1200" height="630" fill="url(#bg)"/>

  <g transform="translate(80 165) scale(0.65)">
    <rect width="460" height="460" fill="#ffffff" opacity="0.08" rx="24"/>
    <g transform="translate(63 63)" fill="#ffffff" stroke="none">
      <g transform="translate(-62.116363,397.820923) scale(0.100000,-0.100000)">
        <path d="M2293 3970 c-142 -30 -275 -153 -334 -309 -11 -31 -41 -131 -65 -223 -38 -141 -56 -188 -114 -301 -115 -220 -199 -438 -223 -577 l-7 -35 93 -38 c138 -58 129 -59 154 15 25 73 73 201 77 205 3 4 66 -18 66 -22 0 -2 -20 -62 -45 -133 -53 -153 -53 -148 -16 -166 30 -16 248 -106 256 -106 3 0 5 137 5 304 0 406 18 488 141 653 21 29 39 54 39 56 0 2 -34 21 -75 41 -84 41 -181 125 -201 172 -29 68 42 184 111 184 43 0 59 -34 65 -138 9 -135 24 -155 135 -183 28 -7 64 -18 81 -25 l31 -13 -68 -69 c-46 -47 -80 -94 -108 -151 -69 -136 -71 -153 -71 -531 l0 -337 25 -11 c19 -9 31 -9 50 0 l25 11 0 331 c0 341 5 388 43 463 35 66 109 163 156 202 l49 41 26 -31 c103 -122 225 -415 275 -663 9 -47 20 -88 23 -91 4 -4 80 19 96 30 1 1 -15 71 -37 156 -65 259 -137 427 -257 602 -41 60 -54 87 -54 116 0 44 57 167 91 197 76 67 237 137 347 150 57 7 62 14 31 45 -41 41 -80 49 -235 49 l-146 0 -74 46 c-127 79 -250 108 -361 84z m199 -215 c17 -37 -3 -75 -38 -75 -31 0 -64 25 -64 48 0 50 82 71 102 27z"/>
        <path d="M1380 2848 c-113 -49 -249 -108 -304 -131 -86 -36 -101 -46 -123 -81 -14 -23 -54 -86 -90 -141 -36 -55 -92 -145 -126 -200 -34 -55 -75 -118 -90 -140 -31 -46 -34 -66 -9 -87 18 -16 154 -79 257 -120 l60 -24 3 -409 c1 -276 6 -412 13 -421 15 -18 81 -49 289 -134 96 -39 198 -82 225 -95 28 -12 129 -55 225 -95 96 -39 198 -82 225 -95 72 -34 288 -123 317 -130 22 -6 231 71 333 122 17 8 77 34 135 58 199 81 285 117 345 145 33 15 130 56 215 90 85 34 180 74 210 88 100 47 90 -12 90 564 0 351 3 508 11 508 5 0 64 -13 129 -30 131 -33 160 -36 178 -18 28 28 5 71 -193 378 -44 69 -86 137 -93 151 -29 55 -59 77 -167 122 -60 26 -132 57 -160 70 -83 40 -326 140 -330 135 -2 -2 2 -16 9 -30 8 -15 17 -40 21 -57 7 -32 43 -53 220 -127 44 -18 107 -44 139 -58 l59 -24 -69 -32 c-63 -29 -245 -108 -624 -269 -80 -34 -211 -91 -291 -127 -165 -73 -140 -73 -289 -4 -47 22 -159 71 -250 109 -91 38 -212 90 -270 116 -58 25 -152 66 -210 90 -58 23 -140 59 -184 80 l-79 37 154 64 c254 106 258 109 285 182 13 34 20 62 16 61 -4 0 -99 -41 -212 -91z m-198 -352 c85 -35 183 -77 218 -94 36 -16 106 -47 155 -67 50 -20 176 -74 280 -119 105 -46 225 -98 268 -116 43 -18 79 -36 81 -39 4 -6 -82 -148 -195 -320 -38 -58 -70 -109 -72 -114 -2 -6 -11 -5 -22 2 -11 6 -114 51 -230 100 -115 49 -262 111 -325 139 -63 27 -155 66 -205 87 -49 20 -121 52 -160 70 -38 19 -105 48 -148 65 l-78 32 16 25 c9 13 29 46 45 72 15 27 43 71 62 98 18 27 60 92 93 146 33 53 61 97 62 97 1 0 71 -29 155 -64z m2289 32 c0 -7 0 -272 0 -588 -1 -316 -1 -623 -1 -681 l0 -106 -112 -48 c-62 -26 -171 -72 -243 -102 -71 -30 -213 -90 -315 -133 -149 -63 -305 -129 -467 -197 -10 -4 -13 137 -13 686 l0 691 33 15 c34 15 212 92 547 235 113 48 284 122 380 163 193 83 190 82 191 65z m184 -193 c27 -44 59 -93 72 -109 33 -40 25 -42 -67 -15 l-80 23 0 110 c0 125 -7 125 75 -9z m-1440 -1663 c-2 -3 -30 7 -61 22 -30 15 -99 44 -152 65 -213 86 -257 104 -267 112 -6 4 -48 23 -95 42 -161 65 -305 126 -438 184 l-133 58 1 354 c0 195 2 357 4 359 3 2 43 -15 90 -37 48 -23 89 -41 91 -41 7 0 330 -137 404 -172 129 -59 261 -109 282 -106 25 3 48 35 153 203 38 61 81 128 95 150 l26 40 3 -614 c1 -338 0 -616 -3 -619z"/>
        <path d="M2885 2144 c-87 -26 -105 -41 -105 -88 0 -44 13 -60 44 -54 23 5 26 2 26 -23 0 -25 -8 -33 -59 -59 -320 -161 -396 -674 -122 -824 257 -139 631 171 631 523 0 88 -47 227 -90 266 -25 22 -10 55 25 55 25 0 55 33 55 61 0 20 -76 79 -100 79 -37 0 -65 -61 -40 -86 7 -7 6 -16 -3 -28 -12 -17 -16 -17 -67 -2 -29 9 -70 16 -91 16 -54 0 -63 45 -13 66 38 16 55 66 35 103 -14 26 -25 25 -126 -5z m188 -291 c271 -142 69 -691 -253 -687 -137 1 -220 101 -220 264 0 280 276 526 473 423z"/>
        <path d="M2990 1708 c-68 -81 -80 -95 -127 -137 -76 -68 -9 -173 70 -111 14 11 28 35 32 53 4 17 31 83 61 145 61 128 59 122 40 122 -8 0 -42 -33 -76 -72z"/>
      </g>
    </g>
  </g>

  <g font-family="Inter, system-ui, -apple-system, Segoe UI, sans-serif" fill="#ffffff">
    <text x="470" y="290" font-size="120" font-weight="800" letter-spacing="-3">schedkit</text>
    <text x="473" y="360" font-size="32" font-weight="500" opacity="0.92">OCI-packaged sched_ext schedulers,</text>
    <text x="473" y="402" font-size="32" font-weight="500" opacity="0.92">from your laptop to a cluster.</text>
  </g>

  <g font-family="JetBrains Mono, Menlo, monospace" fill="#ffffff" opacity="0.75">
    <text x="473" y="500" font-size="22" font-weight="500">schedctl  ·  sked</text>
  </g>

  <rect x="0" y="618" width="1200" height="12" fill="#7ebde6"/>
</svg>
